<?xml version="1.0" standalone="no"?>
<!DOCTYPE svg PUBLIC "-//W3C//DTD SVG 20010904//EN"
 "http://www.w3.org/TR/2001/REC-SVG-20010904/DTD/svg10.dtd">
<svg version="1.0" xmlns="http://www.w3.org/2000/svg"
 width="291.000000pt" height="291.000000pt" viewBox="0 0 291.000000 291.000000"
 preserveAspectRatio="xMidYMid meet">
<metadata>
Created by potrace 1.14, written by Peter Selinger 2001-2017
</metadata>
<g transform="translate(0.000000,291.000000) scale(0.100000,-0.100000)"
fill="#000000" stroke="none">
<path d="M1030 2260 c-12 -9 -62 -212 -53 -221 4 -4 34 -9 66 -10 32 -1 60 -5
62 -8 2 -4 -6 -45 -18 -93 l-21 -86 -110 1 c-136 2 -193 -5 -273 -37 -157 -61
-303 -201 -383 -366 -12 -25 -26 -54 -32 -65 -19 -34 -48 -136 -63 -220 -36
-195 -1 -361 90 -433 96 -75 311 -88 441 -27 29 14 56 30 59 35 13 21 24 9 19
-20 l-6 -30 205 0 206 0 10 38 c57 217 59 200 -24 204 -37 2 -49 7 -47 17 5
25 131 529 173 696 23 88 43 169 45 180 2 11 18 74 35 140 69 270 77 300 72
305 -6 6 -443 6 -453 0z m-46 -677 c12 -7 3 -52 -53 -279 -38 -148 -73 -279
-79 -290 -44 -82 -178 -128 -266 -92 -63 26 -79 136 -42 290 47 197 140 329
263 374 39 15 149 13 177 -3z"/>
<path d="M1615 1807 c-9 -24 -44 -163 -49 -189 -4 -25 -2 -26 55 -33 l60 -7
75 -155 c41 -86 74 -159 74 -164 0 -8 -187 -194 -285 -283 -35 -31 -62 -47
-90 -52 -78 -13 -90 -15 -94 -20 -4 -3 -14 -48 -47 -196 l-6 -28 250 0 c138 0
253 4 256 8 7 12 56 201 56 218 0 8 -3 13 -7 13 -49 -8 -45 4 21 66 37 36 70
65 72 65 7 0 65 -122 61 -126 -2 -3 -24 -6 -47 -7 l-43 -3 -22 -81 c-12 -44
-25 -97 -29 -117 l-7 -36 287 2 288 3 27 110 c14 61 25 111 24 113 -1 1 -24 5
-51 9 -27 3 -55 8 -62 12 -7 4 -48 78 -92 165 -77 152 -79 158 -63 182 8 13
21 28 29 32 7 4 68 61 136 127 133 129 154 145 192 145 57 0 84 12 89 39 2 14
14 61 26 105 11 43 19 82 16 86 -8 13 -484 9 -494 -4 -7 -10 -55 -203 -53
-216 1 -3 11 -7 22 -10 20 -5 16 -11 -38 -63 -33 -31 -64 -57 -69 -57 -8 0
-53 94 -53 111 0 5 18 9 40 9 28 0 42 5 49 18 16 29 60 212 52 216 -4 3 -130
5 -280 4 -198 0 -273 -3 -276 -11z"/>
</g>
</svg>
